<svg width="29" height="50" viewBox="0 0 29 50" fill="none" xmlns="http://www.w3.org/2000/svg">
<path d="M27.6142 48.8949C28.3172 48.199 28.7121 47.2553 28.7121 46.2712C28.7121 45.2872 28.3172 44.3435 27.6142 43.6476L9.0517 25.2782L27.6142 6.90873C28.2973 6.20883 28.6753 5.27143 28.6667 4.29842C28.6582 3.32541 28.2638 2.39464 27.5685 1.70659C26.8732 1.01854 25.9327 0.628269 24.9495 0.619812C23.9662 0.611359 23.019 0.985405 22.3117 1.66139L1.09795 22.6545C0.394932 23.3504 0 24.2941 0 25.2782C0 26.2622 0.394932 27.2059 1.09795 27.9018L22.3117 48.8949C23.0149 49.5906 23.9686 49.9814 24.9629 49.9814C25.9573 49.9814 26.911 49.5906 27.6142 48.8949Z" fill="white"/>
</svg>
