<svg width="61" height="60" viewBox="0 0 61 60" fill="none" xmlns="http://www.w3.org/2000/svg">
<path d="M20.3116 6.13506C19.6086 6.83829 19.2136 7.79194 19.2136 8.78631C19.2136 9.78067 19.6086 10.7343 20.3116 11.4376L38.8741 30.0001L20.3116 48.5626C19.6285 49.2698 19.2505 50.2171 19.2591 51.2003C19.2676 52.1836 19.662 53.1241 20.3573 53.8194C21.0525 54.5147 21.9931 54.909 22.9763 54.9176C23.9596 54.9261 24.9068 54.5481 25.6141 53.8651L46.8278 32.6513C47.5308 31.9481 47.9258 30.9944 47.9258 30.0001C47.9258 29.0057 47.5308 28.052 46.8278 27.3488L25.6141 6.13506C24.9109 5.43204 23.9572 5.03711 22.9628 5.03711C21.9685 5.03711 21.0148 5.43204 20.3116 6.13506Z" fill="white"/>
</svg>
