<svg width="223" height="33" viewBox="0 0 223 33" fill="none" xmlns="http://www.w3.org/2000/svg">
<path d="M15 20.6719C16.4756 20.6719 17.6719 19.4756 17.6719 18C17.6719 16.5244 16.4756 15.3281 15 15.3281C13.5244 15.3281 12.3281 16.5244 12.3281 18C12.3281 19.4756 13.5244 20.6719 15 20.6719Z" fill="white"/>
<path d="M25.1484 13.5938C24.6328 13.4062 24.0938 13.2188 23.5312 13.0547C23.6719 12.4922 23.7891 11.9297 23.8828 11.3906C24.375 8.29687 23.8359 6.11719 22.3359 5.27344C21.8906 5.01562 21.3984 4.89844 20.8359 4.89844C19.1953 4.89844 17.1094 6.11719 15 8.15625C12.8906 6.11719 10.8047 4.89844 9.16406 4.89844C8.60156 4.89844 8.10938 5.01562 7.66406 5.27344C6.16406 6.14062 5.625 8.32031 6.11719 11.3906C6.21094 11.9297 6.32812 12.4922 6.46875 13.0547C5.90625 13.2188 5.36719 13.3828 4.85156 13.5938C1.92188 14.7188 0.328125 16.2656 0.328125 18C0.328125 19.7344 1.94531 21.2813 4.85156 22.4063C5.36719 22.5938 5.90625 22.7812 6.46875 22.9453C6.32812 23.5078 6.21094 24.0703 6.11719 24.6094C5.625 27.7031 6.16406 29.8828 7.66406 30.7266C8.10938 30.9844 8.60156 31.1016 9.16406 31.1016C10.8281 31.1016 12.9141 29.8828 15 27.8438C17.1094 29.8828 19.1953 31.1016 20.8359 31.1016C21.3984 31.1016 21.8906 30.9844 22.3359 30.7266C23.8359 29.8594 24.375 27.6797 23.8828 24.6094C23.7891 24.0703 23.6719 23.5078 23.5312 22.9453C24.0938 22.7812 24.6328 22.6172 25.1484 22.4063C28.0781 21.2813 29.6719 19.7344 29.6719 18C29.6719 16.2656 28.0781 14.7188 25.1484 13.5938ZM21.6797 6.44531C22.6406 7.00781 22.9688 8.74219 22.5703 11.2031C22.5 11.6953 22.3828 12.2109 22.2422 12.75C21.0234 12.4688 19.7344 12.2812 18.375 12.1641C17.5781 11.0391 16.7578 10.0312 15.9375 9.11719C17.6719 7.40625 19.4297 6.23438 20.8594 6.23438C21.1641 6.23438 21.4453 6.30469 21.6797 6.44531ZM19.0547 20.3438C18.6328 21.0938 18.1406 21.8438 17.625 22.5938C16.7578 22.6641 15.8906 22.6875 15 22.6875C14.0859 22.6875 13.2187 22.6641 12.375 22.5938C11.8594 21.8438 11.3906 21.0938 10.9687 20.3438C10.5234 19.5703 10.1016 18.7734 9.72656 18C10.1016 17.2266 10.5234 16.4297 10.9687 15.6562C11.3906 14.9062 11.8828 14.1563 12.3984 13.4063C13.2656 13.3359 14.1328 13.3125 15.0234 13.3125C15.9375 13.3125 16.8047 13.3359 17.6484 13.4063C18.1641 14.1563 18.6328 14.9062 19.0547 15.6562C19.5 16.4297 19.9219 17.2266 20.2969 18C19.8984 18.7734 19.5 19.5469 19.0547 20.3438ZM21 19.5703C21.3516 20.3906 21.6328 21.1875 21.8906 21.9844C21.0938 22.1719 20.25 22.3125 19.3594 22.4297C19.6406 21.9844 19.9453 21.5156 20.2031 21.0234C20.4844 20.5313 20.7422 20.0391 21 19.5703ZM15 25.9219C14.4375 25.3125 13.8984 24.6562 13.3828 23.9766C13.9219 24 14.4609 24.0234 15 24.0234C15.5391 24.0234 16.0781 24 16.6172 23.9766C16.1016 24.6562 15.5625 25.3125 15 25.9219ZM10.6406 22.4063C9.75 22.2891 8.90625 22.1484 8.10937 21.9609C8.36719 21.1875 8.64844 20.3672 9 19.5469C9.25781 20.0156 9.51562 20.5078 9.79687 20.9766C10.0781 21.4922 10.3594 21.9375 10.6406 22.4063ZM9 16.4297C8.64844 15.6094 8.36719 14.8125 8.10937 14.0156C8.90625 13.8281 9.75 13.6875 10.6406 13.5703C10.3594 14.0156 10.0547 14.4844 9.79687 14.9766C9.51562 15.4688 9.25781 15.9609 9 16.4297ZM15 10.0781C15.5625 10.6875 16.1016 11.3438 16.6172 12.0234C16.0781 12 15.5391 11.9766 15 11.9766C14.4609 11.9766 13.9219 12 13.3828 12.0234C13.8984 11.3438 14.4375 10.6875 15 10.0781ZM20.2031 15L19.3594 13.5938C20.25 13.7109 21.0938 13.8516 21.8906 14.0391C21.6328 14.8125 21.3516 15.6328 21 16.4531C20.7422 15.9609 20.4844 15.4688 20.2031 15ZM7.42969 11.2031C7.03125 8.74219 7.35937 7.00781 8.32031 6.44531C8.55469 6.30469 8.83594 6.23438 9.14062 6.23438C10.5469 6.23438 12.3047 7.38281 14.0625 9.11719C13.2422 10.0078 12.4219 11.0391 11.625 12.1641C10.2656 12.2812 8.97656 12.4922 7.75781 12.75C7.61719 12.2109 7.52344 11.6953 7.42969 11.2031ZM1.64062 18C1.64062 16.8984 2.97656 15.7266 5.32031 14.8594C5.78906 14.6719 6.30469 14.5078 6.82031 14.3672C7.19531 15.5391 7.66406 16.7812 8.22656 18.0234C7.66406 19.2656 7.17188 20.4844 6.82031 21.6562C3.58594 20.7188 1.64062 19.3125 1.64062 18ZM8.32031 29.5547C7.35937 28.9922 7.03125 27.2578 7.42969 24.7969C7.5 24.3047 7.61719 23.7891 7.75781 23.25C8.97656 23.5312 10.2656 23.7188 11.625 23.8359C12.4219 24.9609 13.2422 25.9688 14.0625 26.8828C12.3281 28.5938 10.5703 29.7656 9.14062 29.7656C8.83594 29.7656 8.55469 29.6953 8.32031 29.5547ZM22.5703 24.7969C22.9688 27.2578 22.6406 28.9922 21.6797 29.5547C21.4453 29.6953 21.1641 29.7656 20.8594 29.7656C19.4531 29.7656 17.6953 28.6172 15.9375 26.8828C16.7578 25.9922 17.5781 24.9609 18.375 23.8359C19.7344 23.7188 21.0234 23.5078 22.2422 23.25C22.3828 23.7891 22.4766 24.3047 22.5703 24.7969ZM24.6797 21.1406C24.2109 21.3281 23.6953 21.4922 23.1797 21.6328C22.8047 20.4609 22.3359 19.2188 21.7734 17.9766C22.3359 16.7344 22.8281 15.5156 23.1797 14.3438C26.4141 15.2813 28.3594 16.6875 28.3594 18C28.3594 19.1016 27 20.2734 24.6797 21.1406Z" fill="white"/>
<g clip-path="url(#clip0_307_1301)">
<path d="M39.4688 15.979V30.6274H68.7656V1.33057H39.4688V15.979ZM63.0773 14.8071C63.779 14.97 64.4168 15.337 64.9102 15.8618C65.1818 16.1446 65.4179 16.4594 65.6133 16.7993C65.6133 16.8368 64.3477 17.6923 63.5766 18.1704C63.5484 18.1892 63.4359 18.0673 63.3117 17.8821C63.171 17.6392 62.9709 17.436 62.7304 17.2913C62.4898 17.1466 62.2165 17.0652 61.9359 17.0548C61.0477 16.9938 60.4758 17.4603 60.4805 18.2267C60.4731 18.4175 60.5168 18.6068 60.607 18.7751C60.8016 19.1806 61.1648 19.422 62.3039 19.9142C64.4016 20.8165 65.2992 21.4118 65.857 22.2579C66.4805 23.1954 66.6187 24.7095 66.1969 25.8298C65.7281 27.0485 64.5797 27.8759 62.9555 28.1501C62.2136 28.2351 61.4641 28.2272 60.7242 28.1267C59.595 27.9435 58.5534 27.4058 57.75 26.5915C57.4805 26.2938 56.9555 25.5181 56.9883 25.4618C57.0738 25.3983 57.1639 25.3411 57.2578 25.2907L58.3359 24.672L59.1773 24.1845L59.3531 24.4446C59.6498 24.869 60.0273 25.2306 60.4641 25.5087C61.4016 26.0009 62.6812 25.9329 63.3141 25.3634C63.5265 25.1547 63.6591 24.8781 63.6886 24.5817C63.7182 24.2854 63.6429 23.988 63.4758 23.7415C63.2414 23.4157 62.7727 23.1415 61.4625 22.5696C59.9508 21.9181 59.2992 21.5149 58.7039 20.8728C58.3323 20.449 58.0579 19.949 57.9 19.4079C57.7822 18.7897 57.7648 18.1566 57.8484 17.5329C58.1602 16.0728 59.2547 15.0532 60.8531 14.7509C61.5934 14.6593 62.3432 14.6798 63.0773 14.8118V14.8071ZM56.2008 16.0353V17.2353H52.3969V28.0704H49.6992V17.2329H45.8859V16.061C45.8757 15.6576 45.8867 15.2539 45.9188 14.8517C45.9328 14.8329 48.2625 14.8235 51.075 14.8282H56.1867L56.2008 16.0353Z" fill="white"/>
</g>
<g clip-path="url(#clip1_307_1301)">
<path d="M109.092 15.7702C109.092 13.9674 107.726 12.4503 105.893 12.0174L110 1.02637H89.6466L93.7629 12.0521C91.9868 12.5199 90.6776 14.0105 90.6776 15.7793C90.6776 17.0792 91.3943 18.2318 92.483 18.9425C92.0536 19.4972 91.5565 20.0089 90.9933 20.494C89.9332 21.3959 88.7576 22.0889 87.4877 22.5486C86.3416 21.8464 85.8452 20.6068 86.2938 19.497C88.0416 19.0118 89.3126 17.5296 89.3126 15.7875C89.3126 13.647 87.3926 11.9129 85.0423 11.9129C82.683 11.9129 80.7642 13.6552 80.7642 15.7964C80.7642 16.8542 81.2412 17.8245 82.0057 18.5175C81.9387 18.6394 81.8721 18.7601 81.8051 18.8902C81.1652 20.0869 80.4391 21.439 80.1616 22.9561C79.6078 25.9892 80.5151 28.4255 82.7023 29.8034C83.9346 30.5752 85.2914 30.9652 86.7527 30.9652C89.2638 30.9652 91.8145 29.8207 94.2783 28.711C96.0361 27.9228 97.8506 27.0987 99.6368 26.7005C100.296 26.5531 100.984 26.4661 101.71 26.371C103.18 26.1804 104.699 25.981 106.065 25.2614C107.66 24.421 108.748 23.0164 109.064 21.4043C109.302 20.1645 109.064 18.9167 108.452 17.8245C108.87 17.221 109.094 16.5042 109.092 15.7702ZM107.23 15.7702C107.23 16.9749 106.151 17.9546 104.823 17.9546C103.496 17.9546 102.416 16.9749 102.416 15.7702C102.416 15.38 102.531 15.0075 102.731 14.6869C102.807 14.565 102.904 14.4443 102.998 14.34C103.099 14.2328 103.211 14.137 103.333 14.0543L103.343 14.0452C103.419 13.9932 103.505 13.9409 103.591 13.8896C103.591 13.8896 103.6 13.8896 103.6 13.8804C103.639 13.8631 103.677 13.8373 103.716 13.82C103.725 13.82 103.734 13.8108 103.744 13.8108C103.782 13.7944 103.83 13.7771 103.877 13.7595C103.923 13.7437 103.967 13.7264 104.011 13.7075C104.021 13.7075 104.03 13.6981 104.04 13.6981C104.078 13.6901 104.116 13.6725 104.154 13.6643C104.164 13.6643 104.183 13.6552 104.193 13.6552C104.24 13.647 104.279 13.6379 104.326 13.6294H104.336L104.479 13.6029C104.489 13.6029 104.507 13.6029 104.517 13.5947C104.556 13.5947 104.594 13.5856 104.632 13.5856H104.68C104.727 13.5856 104.776 13.5774 104.832 13.5774H104.957C104.994 13.5774 105.024 13.5774 105.061 13.5856H105.081C105.157 13.595 105.233 13.6029 105.31 13.6205C106.399 13.8282 107.23 14.7127 107.23 15.7702ZM92.3107 2.75957H107.335L103.887 11.9909C103.744 12.0174 103.6 12.0603 103.457 12.1034L99.8283 5.38621L96.1889 12.06C96.0452 12.0171 95.8924 11.9907 95.7403 11.9649L92.3107 2.75957ZM99.1397 15.0155C98.9585 14.2006 98.4998 13.4729 97.8506 12.9354L99.8283 9.3127L101.824 13.0132C101.232 13.5507 100.802 14.2355 100.63 15.0155H99.1397ZM94.3551 13.6468C94.4027 13.6374 94.4412 13.6294 94.4887 13.6203H94.5171C94.5555 13.6121 94.5942 13.6121 94.6317 13.6027H94.6701C94.7086 13.6027 94.7369 13.5945 94.7754 13.5945H95.148C95.1855 13.5945 95.2148 13.6027 95.2432 13.6027C95.2624 13.6027 95.2716 13.6027 95.2908 13.6121C95.3292 13.6203 95.3576 13.6203 95.3962 13.6294C95.4051 13.6294 95.4152 13.6294 95.4344 13.6376C95.4823 13.6468 95.5298 13.655 95.568 13.6641H95.5774C95.6158 13.6723 95.6543 13.6805 95.6918 13.6981C95.7019 13.6981 95.711 13.7072 95.7302 13.7072C95.7586 13.7154 95.797 13.7246 95.8254 13.7419C95.8355 13.7419 95.8446 13.7501 95.8547 13.7501C95.8922 13.7677 95.9309 13.7768 95.9693 13.7942H95.9784C96.026 13.8106 96.0644 13.8279 96.1029 13.8546H96.1123C96.1505 13.872 96.1889 13.8975 96.2273 13.9149C96.2367 13.9149 96.2367 13.9243 96.2456 13.9243C96.2841 13.9407 96.3126 13.9671 96.3511 13.9845L96.3612 13.9927C96.4755 14.0707 96.5808 14.1577 96.6851 14.2446L96.6951 14.2529C96.7905 14.348 96.8857 14.4523 96.9626 14.565C97.2108 14.9119 97.3544 15.3195 97.3544 15.7615C97.3544 16.9664 96.2749 17.9452 94.9474 17.9452C93.6199 17.9452 92.5404 16.9664 92.5404 15.7615C92.5305 14.7471 93.3042 13.8893 94.3551 13.6468ZM84.9562 13.5854C86.284 13.5854 87.3633 14.565 87.3633 15.7697C87.3633 16.9746 86.284 17.9541 84.9562 17.9541C83.6287 17.9541 82.5492 16.9746 82.5492 15.7697C82.5492 14.565 83.6287 13.5854 84.9562 13.5854ZM107.173 21.1011C106.963 22.2096 106.207 23.1811 105.1 23.7614C104.059 24.308 102.779 24.481 101.432 24.6542C100.697 24.7493 99.9234 24.8536 99.1781 25.0184C97.1916 25.4607 95.2816 26.3276 93.4287 27.1589C91.0601 28.2256 88.8244 29.2308 86.7527 29.2308C85.6732 29.2308 84.7083 28.9536 83.7919 28.373C81.6907 27.0556 81.795 24.5855 82.0441 23.2332C82.2729 21.9671 82.913 20.7797 83.5244 19.6444C83.5619 19.5748 83.5912 19.5143 83.6287 19.4447C83.8394 19.5143 84.0591 19.5666 84.288 19.6013C83.9255 21.4388 84.9562 23.3368 86.9623 24.2733L87.3255 24.4463L87.7167 24.3162C89.3885 23.7788 90.9356 22.9036 92.3016 21.7334C93.0752 21.0743 93.7345 20.3639 94.2884 19.5921C94.508 19.6271 94.7278 19.6362 94.9474 19.6362C96.9342 19.6362 98.6051 18.3964 99.083 16.7321H100.687C101.165 18.4048 102.836 19.636 104.823 19.636C105.616 19.636 106.351 19.4368 106.981 19.0988C107.23 19.7487 107.306 20.4244 107.173 21.1011Z" fill="white"/>
</g>
<g clip-path="url(#clip2_307_1301)">
<path d="M140.787 21.6507C138.678 25.9632 134.984 28.8647 130.097 29.8187C129.348 30.0022 128.579 30.092 127.807 30.0858C124.995 30.0858 122.417 28.914 121.165 26.9944C119.485 24.4374 118.913 19.0163 124.453 15.0062C124.566 15.6179 124.796 16.4569 124.948 16.9538C123.86 17.7619 122.97 18.806 122.344 20.0077C121.313 22.0327 121.428 24.0554 122.649 25.9257C123.493 27.1866 124.828 27.953 126.546 28.1874C128.692 28.459 130.869 28.049 132.769 27.0155C135.748 25.4499 137.733 23.5796 139.032 21.0226C138.664 20.6431 138.447 20.1436 138.42 19.6163C138.4 19.0505 138.606 18.5 138.992 18.0857C139.377 17.6713 139.912 17.4269 140.478 17.4062H140.557C141.108 17.4034 141.638 17.6123 142.039 17.9896C142.439 18.367 142.679 18.8838 142.709 19.4333C142.74 19.9828 142.557 20.5228 142.2 20.9417C141.843 21.3605 141.339 21.6261 140.792 21.6835L140.787 21.6507ZM147.507 16.9163C150.368 20.1601 150.446 23.978 149.339 26.1929C148.308 28.2155 145.589 30.2405 141.933 30.2405C140.226 30.2057 138.547 29.8019 137.011 29.0569C137.548 28.6749 138.31 28.0632 138.729 27.6812C139.914 28.1943 141.188 28.4668 142.479 28.4827C144.846 28.4827 146.639 27.3765 147.708 25.3538C148.395 24.0179 148.435 22.4522 147.785 20.8491C146.989 18.8321 145.571 17.1206 143.738 15.9624C141.332 14.3409 138.497 13.4764 135.596 13.4804H134.909C134.749 13.8503 134.488 14.168 134.157 14.3974C133.826 14.6269 133.437 14.759 133.034 14.7788H132.961C132.404 14.772 131.872 14.5483 131.478 14.1554C131.083 13.7624 130.857 13.2311 130.848 12.6743C130.839 12.1175 131.047 11.5791 131.429 11.1733C131.81 10.7676 132.335 10.5266 132.891 10.5015H132.968C133.356 10.5018 133.736 10.6089 134.067 10.8111C134.398 11.0132 134.666 11.3027 134.843 11.6476H135.455C140.33 11.6476 144.61 13.5179 147.507 16.9163ZM128.112 22.3069C128.072 21.9177 128.166 21.5265 128.379 21.1983C126.242 17.4952 125.098 12.8007 126.853 7.91396C128.112 4.24131 131.281 1.75928 134.717 1.75928C138.382 1.75928 142.2 4.96787 142.657 11.1507C142.085 10.9608 141.251 10.6819 140.75 10.5788C140.625 8.55615 138.917 3.51709 134.869 3.59209C133.418 3.63193 131.281 4.31865 130.182 5.72959C128.822 7.41386 128.031 9.48568 127.922 11.6476C127.665 14.6119 128.36 17.581 129.907 20.1226C129.993 20.0913 130.084 20.0786 130.175 20.0851H130.25C130.816 20.0748 131.364 20.2902 131.772 20.6838C132.18 21.0774 132.415 21.617 132.426 22.1839C132.436 22.7508 132.221 23.2985 131.827 23.7067C131.433 24.1148 130.894 24.3498 130.327 24.3601H130.25C129.696 24.3581 129.166 24.1428 128.767 23.759C128.369 23.3752 128.134 22.8525 128.112 22.2999V22.3069Z" fill="white"/>
</g>
<g clip-path="url(#clip3_307_1301)">
<path d="M165.173 1.91034e-05C165.149 0.000294514 165.125 0.00248894 165.101 0.0065816C165.007 0.0221519 164.92 0.0670636 164.853 0.134909C164.786 0.202755 164.742 0.290069 164.727 0.384394L161.198 22.9688L163.521 18.5468L169.396 7.3615L165.578 0.240957L165.578 0.240488C165.539 0.167233 165.48 0.106076 165.409 0.0636759C165.338 0.0212757 165.256 -0.000742398 165.173 1.91034e-05ZM171.826 4.28768C171.657 4.28768 171.503 4.38049 171.424 4.53025L169.676 7.85908L169.674 7.8558L161.682 23.0719L164.201 20.5484L172.278 12.4578L174.974 9.75682L172.229 4.53025C172.19 4.45694 172.132 4.39558 172.062 4.35282C171.991 4.31007 171.909 4.28754 171.826 4.28768ZM179.367 6.23322C179.326 6.23183 179.285 6.23608 179.246 6.24588C179.164 6.26563 179.09 6.30731 179.032 6.36635L175.558 9.84517L172.615 12.7943L161.132 24.297L170.885 29.7666H170.885C171.159 29.9197 171.468 30.0001 171.782 30.0001C172.096 30.0001 172.405 29.9197 172.679 29.7666L182.647 24.2243L179.801 6.61033V6.61221C179.787 6.5299 179.751 6.45301 179.696 6.38999C179.641 6.32697 179.57 6.28027 179.491 6.25502C179.451 6.24215 179.409 6.23482 179.367 6.23322ZM182.868 24.3738L182.728 24.3853L182.786 24.4196L182.868 24.3738Z" fill="white"/>
</g>
<path d="M207.237 13.3363C207.475 12.99 207.734 12.9463 207.944 12.9463C208.154 12.9463 208.502 12.99 208.74 13.3363C210.602 15.8738 213.677 20.93 215.946 24.6613C217.426 27.0925 218.562 28.9613 218.796 29.1988C219.671 30.0913 220.871 29.535 221.569 28.5225C222.255 27.5263 222.445 26.8263 222.445 26.08C222.445 25.5713 212.497 7.22126 211.496 5.69376C210.534 4.22501 210.219 3.85376 208.571 3.85376H207.336C205.692 3.85376 205.455 4.22501 204.491 5.69376C203.49 7.22126 193.541 25.5713 193.541 26.0788C193.541 26.8263 193.732 27.5263 194.42 28.5225C195.117 29.535 196.317 30.0913 197.192 29.1975C197.425 28.96 198.561 27.0925 200.041 24.66C202.31 20.93 205.375 15.8738 207.239 13.335L207.237 13.3363Z" fill="white"/>
<defs>
<clipPath id="clip0_307_1301">
<rect width="30" height="30" fill="white" transform="translate(39 1)"/>
</clipPath>
<clipPath id="clip1_307_1301">
<rect width="30" height="30" fill="white" transform="translate(80 1)"/>
</clipPath>
<clipPath id="clip2_307_1301">
<rect width="30" height="30" fill="white" transform="translate(120 1)"/>
</clipPath>
<clipPath id="clip3_307_1301">
<rect width="30" height="30" fill="white" transform="translate(157)"/>
</clipPath>
</defs>
</svg>
