<svg width="28" height="32" viewBox="0 0 28 32" fill="none" xmlns="http://www.w3.org/2000/svg">
<path d="M13.9093 17.96C13.0293 19.12 12.1493 20.34 11.2693 21.62C10.3893 22.9 9.5293 24.16 8.6893 25.4C7.8893 26.64 7.1493 27.84 6.4693 29C5.7893 30.12 5.2093 31.12 4.7293 32H0.709297C2.3493 28.92 4.0693 26.06 5.8693 23.42C7.6693 20.74 9.5093 18.12 11.3893 15.56L1.3093 0.979999H5.8693L13.9093 12.86L22.0693 0.979999H26.3293L16.4293 15.32C17.2693 16.44 18.1693 17.66 19.1293 18.98C20.0893 20.3 21.0493 21.68 22.0093 23.12C22.9693 24.52 23.8893 25.98 24.7693 27.5C25.6893 29.02 26.5293 30.52 27.2893 32H23.0893C22.6093 31.12 22.0293 30.12 21.3493 29C20.6693 27.84 19.9093 26.64 19.0693 25.4C18.2693 24.16 17.4093 22.9 16.4893 21.62C15.6093 20.34 14.7493 19.12 13.9093 17.96Z" fill="white"/>
</svg>
