<svg width="40" height="40" viewBox="0 0 40 40" fill="none" xmlns="http://www.w3.org/2000/svg">
<path d="M35.9099 13.2325C35.4411 12.7638 34.8053 12.5005 34.1424 12.5005C33.4795 12.5005 32.8437 12.7638 32.3749 13.2325L19.9999 25.6075L7.62488 13.2325C7.15337 12.7771 6.52187 12.5251 5.86637 12.5308C5.21088 12.5365 4.58385 12.7994 4.12033 13.263C3.65681 13.7265 3.39389 14.3535 3.3882 15.009C3.3825 15.6645 3.63448 16.296 4.08988 16.7675L18.2324 30.91C18.7012 31.3787 19.337 31.642 19.9999 31.642C20.6628 31.642 21.2986 31.3787 21.7674 30.91L35.9099 16.7675C36.3786 16.2987 36.6418 15.6629 36.6418 15C36.6418 14.3371 36.3786 13.7013 35.9099 13.2325Z" fill="white"/>
</svg>
