<?xml version="1.0" standalone="no"?>
<!DOCTYPE svg PUBLIC "-//W3C//DTD SVG 20010904//EN"
 "http://www.w3.org/TR/2001/REC-SVG-20010904/DTD/svg10.dtd">
<svg version="1.0" xmlns="http://www.w3.org/2000/svg"
 width="419.000000pt" height="446.000000pt" viewBox="0 0 419.000000 446.000000"
 preserveAspectRatio="xMidYMid meet">

<g transform="translate(0.000000,446.000000) scale(0.100000,-0.100000)"
fill="#000000" stroke="none">
<path d="M70 3750 l0 -640 1000 0 1000 0 0 640 0 640 -1000 0 -1000 0 0 -640z
m1741 533 c12 -15 12 -16 -2 -11 -11 4 -16 1 -15 -9 0 -9 -6 -18 -14 -20 -13
-4 -13 -3 0 6 12 9 11 11 -7 11 -27 0 -40 19 -22 31 22 14 45 11 60 -8z
m-1552 -25 c-1 -24 -3 -27 -6 -10 -2 12 -9 22 -14 22 -6 0 -7 5 -4 10 13 21
25 9 24 -22z m58 26 l22 -6 -24 -26 c-26 -28 -37 -25 -42 13 -4 26 4 29 44 19z
m73 -18 c0 -29 -10 -38 -29 -27 -17 11 -5 51 15 51 8 0 14 -10 14 -24z m43 18
c3 -4 2 -15 -3 -25 -7 -12 -6 -19 3 -22 6 -3 2 -6 -10 -6 -24 -1 -31 13 -13
24 6 3 10 11 10 16 0 6 -4 7 -10 4 -5 -3 -10 -1 -10 4 0 12 23 15 33 5z m1522
-4 c3 -6 3 -19 0 -30 -5 -16 -15 -20 -51 -20 -42 0 -44 1 -44 30 0 29 2 30 44
30 25 0 48 -5 51 -10z m-306 -181 l-21 -21 20 -21 c36 -36 81 5 47 43 -10 11
-13 20 -8 20 19 0 35 -29 30 -52 -4 -12 -1 -29 5 -37 10 -13 10 -14 -1 -4 -8
7 -26 9 -42 6 -36 -7 -67 34 -49 66 6 12 17 21 25 21 11 0 9 -6 -6 -21z m279
11 c31 0 33 -2 30 -35 -2 -38 -28 -71 -36 -47 -3 10 -7 10 -18 1 -19 -16 -25
-9 -29 36 -2 21 -9 42 -17 47 -9 7 -5 8 12 4 14 -3 40 -6 58 -6z m-1717 -30
c10 0 19 7 19 15 0 8 5 15 10 15 6 0 10 -9 10 -20 0 -17 3 -19 19 -8 25 15 51
-4 44 -32 -6 -22 -52 -29 -54 -7 0 10 -2 10 -6 0 -7 -18 -23 -16 -23 2 0 21
-38 19 -43 -2 -3 -10 -5 2 -5 27 0 25 2 37 5 28 2 -10 13 -18 24 -18z m287 12
c3 -11 0 -12 -16 -3 -17 9 -23 8 -31 -7 -13 -24 2 -47 25 -38 16 6 16 8 4 16
-12 8 -10 10 8 10 12 0 22 5 22 10 0 6 5 10 10 10 6 0 10 -11 10 -25 0 -14 5
-25 10 -25 6 0 10 11 10 25 0 14 5 25 10 25 6 0 10 -13 10 -30 0 -25 -4 -30
-25 -30 -14 0 -28 7 -31 15 -6 14 -8 14 -18 -1 -18 -24 -60 -15 -64 14 -6 38
5 54 35 50 14 -2 28 -9 31 -16z m176 -32 c1 -16 -4 -30 -10 -30 -12 0 -23 48
-16 69 7 22 25 -5 26 -39z m-334 15 c0 -8 5 -15 10 -15 6 0 10 7 10 15 0 8 5
15 11 15 7 0 8 -7 4 -17 -4 -10 -12 -30 -17 -45 -12 -34 -23 -36 -23 -5 -1 12
-4 32 -9 45 -4 14 -3 22 3 22 6 0 11 -7 11 -15z m290 5 c0 -5 -8 -7 -17 -4
-13 4 -11 0 5 -13 13 -10 20 -22 16 -26 -11 -11 -54 -8 -54 4 0 6 9 8 23 4
l22 -7 -23 17 c-12 9 -20 21 -17 26 8 12 45 12 45 -1z m114 -6 c13 -33 6 -44
-24 -44 -34 0 -39 16 -12 36 16 13 16 14 -2 7 -13 -4 -17 -3 -12 5 10 17 43
15 50 -4z m26 -6 l9 -23 6 21 c6 18 14 22 43 20 32 -1 37 -4 37 -26 0 -20 -6
-26 -27 -28 -25 -3 -28 0 -29 25 l-1 28 -11 -27 c-6 -16 -15 -28 -19 -28 -7 0
-28 42 -28 56 0 12 12 1 20 -18z m-383 -50 c-3 -8 -6 -5 -6 6 -1 11 2 17 5 13
3 -3 4 -12 1 -19z m-84 -240 c10 -11 15 -23 12 -26 -3 -3 -12 4 -21 16 -18 26
-65 30 -84 7 -19 -23 -5 -41 45 -56 50 -15 70 -38 60 -70 -14 -42 -104 -48
-125 -9 -16 29 -12 37 6 12 13 -19 24 -22 57 -20 37 3 42 6 45 30 3 23 -2 28
-48 43 -29 9 -55 26 -61 38 -10 18 -8 24 16 45 32 27 69 24 98 -10z m67 -26
c13 9 27 9 47 2 27 -9 28 -13 29 -74 1 -59 0 -60 -3 -10 -5 59 -16 80 -43 80
-27 0 -44 -28 -51 -84 -5 -39 -6 -28 -6 44 0 52 2 81 4 63 4 -29 6 -31 23 -21z
m215 -6 c30 -22 27 -92 -5 -118 -45 -36 -100 -4 -100 59 0 60 59 93 105 59z
m147 -3 c12 -11 18 -30 18 -59 0 -36 -5 -47 -25 -60 -21 -13 -31 -15 -50 -6
-23 10 -24 9 -28 -26 -2 -21 -4 -9 -5 28 0 54 1 61 10 38 7 -21 16 -28 37 -28
35 0 51 17 51 55 0 45 -31 72 -65 57 -15 -7 -26 -21 -26 -34 l-2 -23 -4 23
c-8 44 53 68 89 35z m-422 -307 c6 -8 11 -28 9 -43 -1 -15 1 -40 5 -55 5 -15
3 -35 -4 -47 -9 -18 -20 -21 -70 -21 l-60 0 0 90 0 90 54 0 c35 0 58 -5 66
-14z m382 -3 c10 -9 18 -22 18 -30 0 -18 -25 -17 -40 2 -15 18 -61 20 -78 3
-7 -7 -12 -28 -12 -48 0 -20 5 -41 12 -48 17 -17 58 -15 80 5 14 13 21 14 30
5 21 -21 -25 -57 -72 -57 -58 0 -85 31 -85 94 0 66 23 91 83 91 28 0 52 -6 64
-17z m245 -2 c3 -11 13 -21 24 -24 25 -7 24 -27 -1 -27 -17 0 -20 -7 -20 -39
0 -30 4 -40 20 -44 11 -3 20 -10 20 -16 0 -18 -29 -25 -56 -13 -21 10 -24 18
-24 62 0 38 -4 50 -15 50 -8 0 -15 5 -15 10 0 6 7 13 15 16 8 4 15 15 15 25 0
25 30 25 37 0z m-548 -61 c12 -41 31 -63 31 -35 0 26 29 75 45 75 8 0 15 -2
15 -5 0 -4 -23 -69 -40 -110 -4 -11 -13 -35 -20 -52 -8 -21 -19 -33 -31 -33
-15 0 -17 4 -8 29 8 23 5 41 -15 92 -31 75 -31 79 -8 79 13 0 22 -12 31 -40z
m453 23 c26 -23 26 -125 1 -122 -10 2 -28 -1 -40 -5 -30 -10 -61 1 -68 23 -9
30 5 50 46 63 24 7 36 15 30 21 -5 5 -17 4 -31 -3 -32 -17 -54 5 -26 26 26 19
65 18 88 -3z m261 -1 c9 -10 18 -29 19 -43 3 -22 -1 -24 -47 -29 -30 -3 -45
-8 -38 -13 7 -4 28 -5 48 -1 28 5 35 3 35 -10 0 -21 -46 -39 -82 -31 -33 8
-48 31 -48 74 0 59 76 94 113 53z m177 -71 c0 -82 -2 -91 -22 -105 -28 -20
-58 -20 -84 -2 -25 19 -12 31 31 28 24 -2 35 2 35 11 0 9 -8 13 -23 10 -37 -7
-69 26 -69 71 0 54 24 76 84 76 l48 0 0 -89z m145 69 c27 -30 25 -88 -4 -111
-46 -37 -105 -13 -117 48 -13 64 78 111 121 63z m75 10 c0 -7 6 -7 19 0 11 5
33 10 49 10 26 0 31 -6 47 -47 l18 -48 15 43 c13 40 35 62 49 49 9 -10 -68
-197 -82 -197 -9 0 -13 15 -13 48 1 27 -8 66 -20 92 -12 25 -22 40 -22 33 0
-6 -10 -13 -22 -15 -20 -3 -23 -10 -26 -50 -3 -40 -6 -48 -23 -48 -17 0 -19 7
-19 63 0 35 3 67 7 70 10 10 23 8 23 -3z"/>
<path d="M285 4270 c3 -5 8 -10 11 -10 2 0 4 5 4 10 0 6 -5 10 -11 10 -5 0 -7
-4 -4 -10z"/>
<path d="M1890 4079 c0 -16 5 -20 27 -17 17 2 29 10 31 21 3 13 -3 17 -27 17
-25 0 -31 -4 -31 -21z"/>
<path d="M275 4070 c-3 -5 1 -10 10 -10 9 0 13 5 10 10 -3 6 -8 10 -10 10 -2
0 -7 -4 -10 -10z"/>
<path d="M278 4043 c7 -3 16 -2 19 1 4 3 -2 6 -13 5 -11 0 -14 -3 -6 -6z"/>
<path d="M830 4070 c-12 -7 -12 -12 -3 -21 15 -15 26 -7 21 15 -2 11 -7 13
-18 6z"/>
<path d="M506 3728 c-31 -44 -13 -98 32 -98 38 0 52 17 52 62 0 56 -54 79 -84
36z"/>
<path d="M230 3401 c0 -16 6 -21 26 -21 33 0 30 33 -4 38 -17 3 -22 -2 -22
-17z"/>
<path d="M230 3319 c0 -16 5 -20 27 -17 17 2 29 10 31 21 3 13 -3 17 -27 17
-25 0 -31 -4 -31 -21z"/>
<path d="M785 3317 c-13 -10 -15 -16 -6 -21 12 -8 41 10 41 25 0 13 -13 11
-35 -4z"/>
<path d="M1043 3373 c-24 -9 -13 -23 18 -23 27 0 30 2 19 15 -13 16 -17 17
-37 8z"/>
<path d="M1190 3360 c-16 -31 -4 -60 26 -60 23 0 25 3 22 37 -4 44 -30 57 -48
23z"/>
<path d="M1361 3371 c-7 -5 -11 -21 -9 -37 5 -49 57 -42 58 8 0 21 -31 40 -49
29z"/>
<path d="M2288 4260 c2 -16 6 -30 8 -30 2 0 4 14 4 30 0 17 -4 30 -8 30 -5 0
-7 -13 -4 -30z"/>
<path d="M2316 4282 c-6 -11 4 -52 13 -52 4 0 18 12 30 27 17 18 19 24 7 20
-9 -4 -16 -2 -16 3 0 12 -27 13 -34 2z m24 -12 c0 -5 -2 -10 -4 -10 -3 0 -8 5
-11 10 -3 6 -1 10 4 10 6 0 11 -4 11 -10z"/>
<path d="M2396 4274 c-9 -24 -7 -31 4 -14 8 12 10 10 10 -9 0 -16 3 -22 10
-15 10 10 2 54 -10 54 -4 0 -11 -7 -14 -16z"/>
<path d="M2440 4279 c0 -5 5 -7 10 -4 6 3 10 2 10 -4 0 -5 -4 -13 -10 -16 -18
-11 -11 -25 13 -25 17 0 19 2 8 9 -12 7 -12 13 -3 24 7 7 9 17 5 20 -10 11
-33 8 -33 -4z"/>
<path d="M3843 4253 c-7 -2 -13 -17 -12 -31 1 -27 1 -27 8 -3 3 13 15 28 26
32 12 5 14 8 5 8 -8 -1 -21 -3 -27 -6z"/>
<path d="M3940 4251 c14 -4 27 -17 31 -31 6 -23 7 -22 8 8 1 30 -1 32 -31 31
-30 -1 -31 -2 -8 -8z"/>
<path d="M3885 4190 c-4 -7 -3 -16 3 -22 14 -14 45 -2 40 15 -6 16 -34 21 -43
7z m35 -10 c0 -5 -7 -10 -15 -10 -8 0 -15 5 -15 10 0 6 7 10 15 10 8 0 15 -4
15 -10z"/>
<path d="M3831 4139 c-1 -26 15 -40 42 -38 7 0 3 4 -8 8 -11 4 -23 19 -26 32
l-7 24 -1 -26z"/>
<path d="M3971 4137 c0 -10 -11 -22 -23 -27 -13 -5 -16 -9 -8 -9 25 -1 42 15
37 35 -4 17 -5 17 -6 1z"/>
<path d="M2310 4044 c-11 -12 -10 -18 5 -32 18 -16 18 -16 6 1 -11 14 -11 20
-1 32 7 8 10 15 7 15 -2 0 -10 -7 -17 -16z"/>
<path d="M3951 4031 c-38 -7 -46 -18 -31 -41 9 -13 11 -13 20 0 9 13 11 13 20
0 9 -13 11 -13 20 0 7 12 3 16 -23 21 l-32 6 33 2 c17 0 32 6 32 11 0 6 -1 9
-2 9 -2 -1 -18 -4 -37 -8z"/>
<path d="M2963 3703 c-28 -5 -38 -38 -30 -104 8 -67 37 -126 86 -176 l41 -43
50 36 50 36 -30 38 c-16 21 -30 44 -29 51 0 8 5 4 11 -9 14 -29 32 -23 36 12
2 17 0 26 -6 22 -8 -5 4 45 15 63 4 7 42 -43 43 -56 0 -7 6 -10 14 -7 7 3 16
-2 19 -11 4 -10 15 -14 29 -12 13 2 18 2 11 0 -14 -5 -25 -31 -15 -37 4 -2 24
-1 45 3 l38 6 -31 41 c-34 48 -117 107 -175 127 -46 16 -139 27 -172 20z m57
-18 c7 -8 17 -12 22 -9 5 3 12 -4 15 -15 4 -16 11 -20 24 -16 23 8 27 -20 3
-29 -10 -4 -19 4 -28 26 -12 29 -14 29 -25 12 -11 -19 -11 -19 -27 1 -8 11
-20 19 -26 17 -7 -2 -6 3 2 12 16 20 24 20 40 1z m111 -72 c-8 -15 -10 -15
-11 -2 0 17 10 32 18 25 2 -3 -1 -13 -7 -23z m-84 -5 c-3 -8 -6 -5 -6 6 -1 11
2 17 5 13 3 -3 4 -12 1 -19z m53 -18 c0 -5 -2 -10 -4 -10 -3 0 -8 5 -11 10 -3
6 -1 10 4 10 6 0 11 -4 11 -10z"/>
<path d="M3145 3501 c-6 -10 11 -24 32 -27 7 -1 15 1 18 6 3 5 -3 7 -12 5 -25
-4 -38 6 -22 16 10 6 10 9 2 9 -6 0 -14 -4 -18 -9z"/>
<path d="M1529 2867 c0 -1 -2 -14 -4 -29 -5 -37 27 -38 43 -3 7 14 12 27 12
28 0 3 -50 7 -51 4z"/>
<path d="M580 2808 c0 -13 7 -32 15 -42 11 -15 17 -17 29 -7 8 6 12 21 9 31
-5 21 11 28 22 10 3 -5 12 -10 18 -10 26 1 -37 40 -64 40 -23 0 -29 -4 -29
-22z"/>
<path d="M1474 2784 c20 -20 20 -28 0 -20 -9 3 -25 -4 -40 -19 -48 -48 -18
-172 49 -194 37 -13 80 -1 104 29 25 30 43 108 31 140 -10 31 -16 34 -55 30
-13 -1 -38 10 -56 24 -37 29 -57 35 -33 10z m32 -44 c15 -6 24 -13 22 -16 -8
-8 -58 7 -58 17 0 11 3 11 36 -1z"/>
<path d="M2801 2453 c1 -21 3 -30 6 -21 2 9 12 19 21 21 15 4 15 5 0 6 -26 2
-22 19 5 24 19 4 18 4 -5 6 -26 1 -28 -2 -27 -36z"/>
<path d="M3011 2453 c0 -33 1 -35 9 -15 12 27 30 29 30 2 0 -11 5 -20 10 -20
12 0 13 20 2 35 -4 6 -17 16 -29 23 -22 12 -23 11 -22 -25z"/>
<path d="M3102 2458 c-2 -34 1 -38 21 -37 15 1 17 3 5 6 -10 2 -18 17 -21 36
-4 31 -4 31 -5 -5z"/>
<path d="M1447 2459 c4 -13 8 -18 11 -10 2 7 -1 18 -6 23 -8 8 -9 4 -5 -13z"/>
<path d="M1552 2455 c0 -16 2 -22 5 -12 2 9 2 23 0 30 -3 6 -5 -1 -5 -18z"/>
<path d="M460 2451 c0 -12 2 -13 9 -3 7 11 9 11 14 -2 4 -9 12 -16 19 -16 9 0
9 3 -2 10 -12 8 -13 11 -1 19 9 6 6 9 -13 9 -17 0 -26 -6 -26 -17z"/>
<path d="M561 2448 c0 -22 1 -22 8 -3 l8 20 5 -20 c5 -18 6 -18 7 3 1 13 -5
22 -14 22 -9 0 -15 -9 -14 -22z"/>
<path d="M650 2455 c0 -22 22 -29 35 -11 15 19 37 18 47 -4 6 -11 7 -10 5 5
-2 16 -11 20 -45 22 -30 1 -42 -2 -42 -12z"/>
<path d="M760 2461 c13 -10 13 -12 0 -22 -13 -9 -13 -10 0 -6 8 2 15 10 15 17
0 7 -7 15 -15 17 -13 4 -13 3 0 -6z"/>
<path d="M802 2456 c7 -8 15 -12 17 -11 5 6 -10 25 -20 25 -5 0 -4 -6 3 -14z"/>
<path d="M1470 2444 c0 -14 4 -23 10 -19 6 4 7 11 4 17 -4 6 0 14 7 19 11 7
10 9 -3 9 -13 0 -18 -8 -18 -26z"/>
<path d="M1510 2445 c0 -18 4 -23 16 -18 13 5 13 7 2 14 -11 7 -10 11 2 19 13
8 12 10 -2 10 -12 0 -18 -8 -18 -25z"/>
<path d="M1572 2453 c5 -25 28 -28 28 -4 0 12 -6 21 -16 21 -9 0 -14 -7 -12
-17z"/>
<path d="M2850 2444 c0 -13 5 -24 10 -24 6 0 10 9 10 20 0 11 4 20 9 20 5 0
11 -9 14 -20 3 -13 13 -20 29 -19 22 0 22 1 3 9 -17 7 -17 9 -2 9 9 1 17 7 17
15 0 10 -13 14 -45 14 -41 0 -45 -2 -45 -24z"/>
<path d="M2960 2460 c0 -6 8 -14 17 -17 15 -6 15 -7 -3 -14 -17 -7 -17 -8 4
-8 13 -1 22 5 22 14 0 8 -8 15 -17 16 -15 0 -15 2 2 9 19 8 19 9 -2 9 -13 1
-23 -4 -23 -9z"/>
<path d="M3152 2448 c2 -16 10 -24 28 -25 l25 -2 -25 8 c-24 9 -24 9 -2 10 32
1 29 31 -4 31 -21 0 -25 -4 -22 -22z"/>
<path d="M3211 2443 c0 -27 1 -27 9 -5 5 12 12 22 15 22 3 0 10 -10 15 -22 l9
-23 0 23 c1 12 5 22 10 22 5 0 12 -10 14 -22 4 -20 4 -19 6 5 1 25 -2 27 -39
27 -37 0 -40 -2 -39 -27z"/>
<path d="M3304 2455 c-8 -20 4 -35 27 -35 14 0 19 7 19 25 0 18 -5 25 -20 25
-11 0 -23 -7 -26 -15z m36 -10 c0 -8 -4 -15 -9 -15 -13 0 -22 16 -14 24 11 11
23 6 23 -9z"/>
<path d="M3371 2443 c2 -23 2 -24 6 -5 2 12 9 22 14 22 5 0 14 -10 19 -22 10
-23 10 -23 7 2 -1 17 -9 26 -24 28 -20 3 -23 -1 -22 -25z"/>
<path d="M602 2360 c0 -14 2 -19 5 -12 2 6 2 18 0 25 -3 6 -5 1 -5 -13z"/>
<path d="M1595 2369 c-4 -6 -5 -12 -2 -15 2 -3 7 2 10 11 7 17 1 20 -8 4z"/>
<path d="M2224 2248 c-4 -6 0 -16 9 -23 22 -16 22 -29 0 -20 -15 5 -16 4 -5
-6 10 -11 14 -11 25 0 10 10 9 15 -5 25 -22 16 -23 30 -2 22 8 -3 12 -2 9 4
-8 13 -22 13 -31 -2z"/>
<path d="M2287 2224 c-10 -13 -14 -24 -10 -24 9 0 36 40 31 45 -2 2 -11 -8
-21 -21z"/>
<path d="M2340 2245 c0 -6 9 -18 20 -28 19 -16 20 -16 20 11 0 21 -2 24 -10
12 -9 -13 -11 -13 -20 0 -5 8 -10 10 -10 5z"/>
<path d="M2408 2223 c7 -3 16 -2 19 1 4 3 -2 6 -13 5 -11 0 -14 -3 -6 -6z"/>
<path d="M3187 2049 c-50 -29 -65 -159 -24 -220 12 -18 33 -36 47 -40 14 -4
177 -7 363 -8 372 -1 392 2 421 58 33 63 14 185 -33 211 -26 14 -750 13 -774
-1z m264 -102 c8 -7 19 -21 23 -32 l8 -20 8 20 c8 20 9 20 9 -1 1 -18 -5 -21
-44 -22 -43 0 -45 1 -45 27 0 41 13 50 41 28z m178 -20 c1 7 16 11 41 10 22
-1 40 -3 40 -4 0 -1 -3 -8 -6 -17 -8 -21 -24 -20 -25 2 0 13 -2 12 -9 -5 -10
-24 -40 -32 -40 -10 0 9 -3 8 -9 -2 -13 -19 -20 0 -13 34 l6 30 7 -25 c4 -14
7 -20 8 -13z m-33 12 c3 -6 2 -14 -3 -18 -6 -3 -13 -13 -16 -21 -3 -8 -6 0 -6
18 -1 32 11 42 25 21z m-55 -9 c8 12 9 9 3 -10 -3 -14 -10 -32 -15 -40 -7 -13
-8 -13 -9 0 0 8 -3 26 -6 40 -5 20 -3 22 5 10 10 -13 12 -13 22 0z m180 -33
c-8 -8 -11 -7 -11 4 0 20 13 34 18 19 3 -7 -1 -17 -7 -23z"/>
<path d="M3420 1940 c0 -5 5 -10 11 -10 5 0 7 5 4 10 -3 6 -8 10 -11 10 -2 0
-4 -4 -4 -10z"/>
<path d="M3438 1923 c-10 -2 -18 -9 -18 -14 0 -14 16 -11 30 6 7 8 11 14 9 14
-2 -1 -12 -3 -21 -6z"/>
<path d="M3640 1915 c0 -8 5 -15 10 -15 6 0 10 7 10 15 0 8 -4 15 -10 15 -5 0
-10 -7 -10 -15z"/>
<path d="M590 1980 c0 -5 5 -10 10 -10 6 0 2 -10 -10 -22 -11 -12 -20 -25 -20
-30 0 -4 -5 -7 -12 -5 -6 1 -14 -7 -16 -18 -3 -15 5 -11 36 19 47 45 60 76 31
76 -10 0 -19 -4 -19 -10z"/>
<path d="M2213 1925 c0 -38 2 -53 4 -32 2 20 2 52 0 70 -2 17 -4 1 -4 -38z"/>
<path d="M528 1963 c-24 -15 -62 -72 -54 -81 7 -6 56 10 56 19 0 5 -7 6 -15 3
-27 -11 -16 3 25 31 59 41 48 65 -12 28z"/>
<path d="M1345 1950 c-3 -5 3 -10 15 -10 12 0 18 5 15 10 -3 6 -10 10 -15 10
-5 0 -12 -4 -15 -10z"/>
<path d="M2840 1926 c0 -14 4 -27 8 -30 5 -3 6 8 4 25 -5 35 -12 38 -12 5z"/>
<path d="M2521 1921 c-1 -18 -5 -22 -18 -16 -15 5 -16 4 -5 -6 16 -17 36 2 29
27 -4 15 -5 14 -6 -5z"/>
<path d="M2785 1921 c-3 -5 -1 -12 5 -16 5 -3 10 1 10 9 0 18 -6 21 -15 7z"/>
<path d="M2547 1899 c7 -7 15 -10 18 -7 3 3 -2 9 -12 12 -14 6 -15 5 -6 -5z"/>
<path d="M2725 1900 c-16 -7 -17 -9 -3 -9 9 -1 20 4 23 9 7 11 7 11 -20 0z"/>
<path d="M1677 1869 c4 -13 8 -18 11 -10 2 7 -1 18 -6 23 -8 8 -9 4 -5 -13z"/>
<path d="M1400 1836 c0 -3 9 -10 20 -16 11 -6 20 -8 20 -6 0 3 -9 10 -20 16
-11 6 -20 8 -20 6z"/>
<path d="M1656 1825 c-11 -8 -15 -15 -9 -15 6 0 16 7 23 15 16 19 11 19 -14 0z"/>
<path d="M1523 1793 c15 -2 39 -2 55 0 15 2 2 4 -28 4 -30 0 -43 -2 -27 -4z"/>
<path d="M595 1750 c3 -5 28 -10 55 -10 27 0 52 5 55 10 4 6 -17 10 -55 10
-38 0 -59 -4 -55 -10z"/>
<path d="M604 1625 c-8 -19 4 -35 24 -34 15 1 15 2 0 6 -10 2 -18 11 -18 18 0
7 8 16 18 18 16 4 16 5 -1 6 -10 0 -20 -6 -23 -14z"/>
<path d="M1400 1615 c0 -17 5 -25 18 -25 14 0 15 2 2 10 -13 9 -13 10 0 10 12
0 13 2 1 9 -11 7 -11 9 0 14 10 4 9 6 -3 6 -13 1 -18 -7 -18 -24z"/>
<path d="M475 1620 c-8 -13 3 -30 18 -29 9 0 9 2 0 6 -23 9 -14 25 10 18 17
-5 19 -4 7 4 -19 13 -27 14 -35 1z"/>
<path d="M650 1610 c0 -11 2 -20 4 -20 2 0 6 9 9 20 3 11 1 20 -4 20 -5 0 -9
-9 -9 -20z"/>
<path d="M733 1615 c7 -6 23 -17 36 -24 21 -12 22 -11 19 10 -2 19 -10 24 -35
25 -25 1 -29 -1 -20 -11z m47 -5 c0 -5 -4 -10 -10 -10 -5 0 -10 5 -10 10 0 6
5 10 10 10 6 0 10 -4 10 -10z"/>
<path d="M820 1614 c0 -8 -4 -12 -10 -9 -5 3 -10 1 -10 -4 0 -6 7 -11 15 -11
8 0 15 9 15 20 0 11 -2 20 -5 20 -3 0 -5 -7 -5 -16z"/>
<path d="M1448 1623 c6 -2 12 -9 12 -14 0 -6 -4 -7 -10 -4 -5 3 -10 1 -10 -4
0 -6 7 -11 15 -11 8 0 15 9 15 20 0 13 -6 20 -17 19 -11 0 -13 -3 -5 -6z"/>
<path d="M1481 1608 c0 -22 1 -22 8 -3 l8 20 5 -20 c5 -18 6 -18 7 3 1 13 -5
22 -14 22 -9 0 -15 -9 -14 -22z"/>
<path d="M1540 1616 c0 -8 -6 -17 -12 -19 -8 -3 -6 -6 5 -6 11 -1 17 6 17 19
0 11 -2 20 -5 20 -3 0 -5 -6 -5 -14z"/>
<path d="M451 1604 c0 -11 3 -14 6 -6 3 7 2 16 -1 19 -3 4 -6 -2 -5 -13z"/>
<path d="M1620 1611 c0 -7 -4 -9 -10 -6 -5 3 -10 1 -10 -4 0 -6 4 -11 9 -11
13 0 25 20 17 27 -3 4 -6 1 -6 -6z"/>
<path d="M525 1600 c-3 -5 -1 -10 4 -10 6 0 11 5 11 10 0 6 -2 10 -4 10 -3 0
-8 -4 -11 -10z"/>
<path d="M680 1600 c0 -5 5 -10 11 -10 5 0 7 5 4 10 -3 6 -8 10 -11 10 -2 0
-4 -4 -4 -10z"/>
<path d="M2221 1568 c2 -32 2 -32 6 -5 3 20 9 27 19 23 9 -3 12 -1 9 4 -14 23
-35 9 -34 -22z"/>
<path d="M2382 1560 c0 -14 2 -19 5 -12 2 6 2 18 0 25 -3 6 -5 1 -5 -13z"/>
<path d="M602 1520 c0 -14 2 -19 5 -12 2 6 2 18 0 25 -3 6 -5 1 -5 -13z"/>
<path d="M2315 1411 c-3 -5 -1 -12 5 -16 5 -3 10 1 10 9 0 18 -6 21 -15 7z"/>
<path d="M3475 1411 c-3 -5 -1 -12 5 -16 5 -3 10 1 10 9 0 18 -6 21 -15 7z"/>
<path d="M3182 1265 c0 -16 2 -22 5 -12 2 9 2 23 0 30 -3 6 -5 -1 -5 -18z"/>
<path d="M3462 1265 c0 -16 2 -22 5 -12 2 9 2 23 0 30 -3 6 -5 -1 -5 -18z"/>
<path d="M3612 1260 c0 -14 2 -19 5 -12 2 6 2 18 0 25 -3 6 -5 1 -5 -13z"/>
<path d="M2451 1254 c0 -11 3 -14 6 -6 3 7 2 16 -1 19 -3 4 -6 -2 -5 -13z"/>
<path d="M715 1180 c3 -5 8 -10 11 -10 2 0 4 5 4 10 0 6 -5 10 -11 10 -5 0 -7
-4 -4 -10z"/>
<path d="M663 1115 c0 -8 8 -15 18 -15 12 0 16 5 13 15 -4 8 -12 15 -18 15 -7
0 -13 -7 -13 -15z"/>
<path d="M2641 1114 c0 -11 3 -14 6 -6 3 7 2 16 -1 19 -3 4 -6 -2 -5 -13z"/>
<path d="M3501 1114 c0 -11 3 -14 6 -6 3 7 2 16 -1 19 -3 4 -6 -2 -5 -13z"/>
<path d="M604 1105 c4 -12 2 -13 -13 -6 -22 12 -32 5 -24 -17 5 -12 2 -14 -11
-9 -15 6 -17 3 -11 -26 4 -17 13 -39 20 -47 7 -8 17 -28 22 -45 7 -21 16 -30
30 -29 23 0 25 -23 3 -36 -12 -7 -12 -10 2 -15 21 -8 38 1 38 21 0 8 5 14 10
14 6 0 10 10 10 23 0 12 7 35 15 50 14 27 11 82 -5 92 -5 3 -6 -4 -3 -15 3
-11 1 -20 -5 -20 -18 0 -62 46 -62 64 0 9 -5 16 -11 16 -6 0 -9 -7 -5 -15z m6
-34 c0 -6 -4 -13 -10 -16 -5 -3 -10 1 -10 9 0 9 5 16 10 16 6 0 10 -4 10 -9z
m-21 -44 c6 -8 8 -17 4 -20 -7 -8 -33 11 -33 24 0 13 16 11 29 -4z m76 -27 c3
-5 1 -10 -4 -10 -6 0 -11 5 -11 10 0 6 2 10 4 10 3 0 8 -4 11 -10z m-40 -30
c3 -5 1 -10 -4 -10 -6 0 -11 5 -11 10 0 6 2 10 4 10 3 0 8 -4 11 -10z m35 -30
c0 -5 -2 -10 -4 -10 -3 0 -8 5 -11 10 -3 6 -1 10 4 10 6 0 11 -4 11 -10z"/>
<path d="M2602 865 c0 -16 2 -22 5 -12 2 9 2 23 0 30 -3 6 -5 -1 -5 -18z"/>
<path d="M2581 854 c0 -11 3 -14 6 -6 3 7 2 16 -1 19 -3 4 -6 -2 -5 -13z"/>
<path d="M514 785 c-8 -19 4 -35 24 -34 15 1 15 2 0 6 -10 2 -18 11 -18 18 0
7 8 16 18 18 16 4 16 5 -1 6 -10 0 -20 -6 -23 -14z"/>
<path d="M1410 794 c0 -21 25 -35 38 -22 7 7 12 16 12 22 0 5 -6 1 -14 -9 -13
-18 -13 -18 -24 1 -6 10 -12 14 -12 8z"/>
<path d="M561 764 c0 -11 3 -14 6 -6 3 7 2 16 -1 19 -3 4 -6 -2 -5 -13z"/>
<path d="M602 765 c-11 -13 -10 -15 5 -16 10 -1 23 0 28 1 6 2 21 3 34 4 13 1
26 8 28 16 4 13 3 13 -6 0 -10 -13 -12 -13 -21 0 -9 13 -11 13 -21 0 -8 -11
-12 -12 -16 -2 -6 16 -15 15 -31 -3z"/>
<path d="M1490 769 c0 -5 -4 -7 -10 -4 -5 3 -10 1 -10 -4 0 -6 9 -11 20 -11
11 0 20 7 20 15 0 8 -4 15 -10 15 -5 0 -10 -5 -10 -11z"/>
<path d="M1530 763 c0 -9 3 -13 6 -10 4 3 15 2 25 -4 16 -8 19 -6 19 13 0 19
-2 20 -11 8 -8 -11 -12 -12 -16 -2 -7 18 -23 15 -23 -5z"/>
<path d="M1602 764 c-7 -8 -8 -14 -3 -14 10 0 25 19 20 25 -2 1 -10 -3 -17
-11z"/>
<path d="M715 760 c-3 -5 -1 -10 4 -10 6 0 11 5 11 10 0 6 -2 10 -4 10 -3 0
-8 -4 -11 -10z"/>
<path d="M601 674 c0 -11 3 -14 6 -6 3 7 2 16 -1 19 -3 4 -6 -2 -5 -13z"/>
<path d="M2228 513 c7 -3 16 -2 19 1 4 3 -2 6 -13 5 -11 0 -14 -3 -6 -6z"/>
<path d="M290 363 c8 -3 24 -13 35 -22 20 -16 20 -16 1 7 -11 12 -26 22 -35
21 -14 0 -14 -1 -1 -6z"/>
<path d="M810 351 c-10 -19 -8 -21 16 -21 24 0 25 2 13 18 -7 9 -14 19 -15 20
-1 2 -7 -6 -14 -17z"/>
<path d="M1341 357 c-17 -17 -13 -31 14 -57 l25 -23 25 23 c24 22 34 59 18 61
-43 6 -73 5 -82 -4z m77 -18 c1 -8 -7 -24 -18 -34 -20 -18 -21 -18 -42 2 -11
12 -18 28 -15 36 8 20 71 17 75 -4z"/>
<path d="M281 298 c0 -9 -7 -19 -13 -22 -7 -3 5 -4 27 -3 32 2 40 6 42 22 1
16 1 16 -3 3 -3 -10 -10 -18 -15 -18 -5 0 -9 8 -10 18 0 14 -2 14 -8 -3 l-8
-20 -5 20 c-4 15 -6 16 -7 3z"/>
<path d="M780 290 c0 -13 7 -20 20 -20 13 0 20 7 20 20 0 13 -7 20 -20 20 -13
0 -20 -7 -20 -20z"/>
<path d="M832 293 c5 -26 38 -29 38 -4 0 15 -6 21 -21 21 -14 0 -19 -5 -17
-17z"/>
<path d="M727 123 c-4 -3 -7 -10 -7 -15 0 -15 667 -5 682 10 10 9 -56 12 -328
12 -188 0 -344 -3 -347 -7z"/>
<path d="M2767 123 c-4 -3 -7 -10 -7 -15 0 -15 667 -5 682 10 10 9 -56 12
-328 12 -188 0 -344 -3 -347 -7z"/>
</g>
</svg>
