<svg width="100" height="100" viewBox="0 0 100 100" fill="none" xmlns="http://www.w3.org/2000/svg">
<g clip-path="url(#clip0_307_908)">
<path d="M76.5625 0H23.4375C10.4933 0 0 10.4933 0 23.4375V76.5625C0 89.5067 10.4933 100 23.4375 100H76.5625C89.5067 100 100 89.5067 100 76.5625V23.4375C100 10.4933 89.5067 0 76.5625 0Z" fill="#242938"/>
<path d="M39.7008 71.3355C39.7008 71.3355 36.7008 73.1613 41.7887 73.6835C47.9325 74.4663 51.1809 74.3355 57.9633 73.032C57.9633 73.032 59.7891 74.2074 62.268 75.1195C47.0043 81.6413 27.6989 74.7281 39.7008 71.3355ZM37.7442 62.857C37.7442 62.857 34.4825 65.3359 39.57 65.8566C46.2215 66.5085 51.4415 66.6394 60.4422 64.8148C60.4422 64.8148 61.6176 66.1199 63.5731 66.7718C45.1813 72.2503 24.5692 67.2925 37.7442 62.8581V62.857ZM73.7481 77.7281C73.7481 77.7281 75.9653 79.5538 71.2692 80.9898C62.5286 83.5984 34.6133 84.3824 26.7864 80.9898C24.0485 79.8144 29.2657 78.1179 30.9606 77.8589C32.6567 77.4675 33.5692 77.4675 33.5692 77.4675C30.5692 75.38 13.6102 81.7722 24.9594 83.6117C56.1364 88.7003 81.8356 81.3945 73.7469 77.7413L73.7481 77.7281ZM41.1356 53.9855C41.1356 53.9855 26.9161 57.3781 36.0465 58.5507C39.9602 59.0714 47.6563 58.9421 54.8313 58.4199C60.7016 57.8988 66.5852 56.8546 66.5852 56.8546C66.5852 56.8546 64.4973 57.7679 63.0629 58.6804C48.5711 62.4667 20.7856 60.7706 28.7434 56.857C35.5286 53.5952 41.1356 53.9855 41.1356 53.9855ZM66.5715 68.2046C81.1836 60.6382 74.3985 53.3335 69.7024 54.2472C68.527 54.5077 68.0063 54.7683 68.0063 54.7683C68.0063 54.7683 68.3973 53.9855 69.311 53.7265C78.5723 50.4648 85.8786 63.5101 66.3114 68.5976C66.3114 68.5976 66.4422 68.4667 66.5715 68.2062V68.2046ZM42.57 88.814C56.6586 89.7277 78.1825 88.2929 78.7047 81.6386C78.7047 81.6386 77.6629 84.2472 67.0954 86.2042C55.0946 88.4214 40.2219 88.1609 31.4829 86.7249C31.4829 86.7249 33.3086 88.2902 42.5711 88.8124L42.57 88.814Z" fill="white"/>
<path d="M57.6898 10.9375C57.6898 10.9375 65.7773 19.1559 49.9937 31.5469C37.3398 41.5906 47.1222 47.3312 49.9937 53.852C42.5582 47.2004 37.2117 41.3289 40.8621 35.85C46.2234 27.7668 60.9621 23.8531 57.6898 10.9375ZM53.516 48.3758C57.2984 52.6805 52.4742 56.5941 52.4742 56.5941C52.4742 56.5941 62.1269 51.6387 57.6925 45.5055C53.648 39.6352 50.5175 36.7648 67.4761 26.9801C67.4761 26.9801 40.734 33.6316 53.5187 48.373L53.516 48.3758Z" fill="#F58219"/>
</g>
<defs>
<clipPath id="clip0_307_908">
<rect width="100" height="100" fill="white"/>
</clipPath>
</defs>
</svg>
