<svg width="190" height="32" viewBox="0 0 190 32" fill="none" xmlns="http://www.w3.org/2000/svg">
<path d="M15 19.6719C16.4756 19.6719 17.6719 18.4756 17.6719 17C17.6719 15.5244 16.4756 14.3281 15 14.3281C13.5244 14.3281 12.3281 15.5244 12.3281 17C12.3281 18.4756 13.5244 19.6719 15 19.6719Z" fill="white"/>
<path d="M25.1484 12.5938C24.6328 12.4062 24.0938 12.2188 23.5312 12.0547C23.6719 11.4922 23.7891 10.9297 23.8828 10.3906C24.375 7.29687 23.8359 5.11719 22.3359 4.27344C21.8906 4.01562 21.3984 3.89844 20.8359 3.89844C19.1953 3.89844 17.1094 5.11719 15 7.15625C12.8906 5.11719 10.8047 3.89844 9.16406 3.89844C8.60156 3.89844 8.10938 4.01562 7.66406 4.27344C6.16406 5.14062 5.625 7.32031 6.11719 10.3906C6.21094 10.9297 6.32812 11.4922 6.46875 12.0547C5.90625 12.2188 5.36719 12.3828 4.85156 12.5938C1.92188 13.7188 0.328125 15.2656 0.328125 17C0.328125 18.7344 1.94531 20.2813 4.85156 21.4063C5.36719 21.5938 5.90625 21.7812 6.46875 21.9453C6.32812 22.5078 6.21094 23.0703 6.11719 23.6094C5.625 26.7031 6.16406 28.8828 7.66406 29.7266C8.10938 29.9844 8.60156 30.1016 9.16406 30.1016C10.8281 30.1016 12.9141 28.8828 15 26.8438C17.1094 28.8828 19.1953 30.1016 20.8359 30.1016C21.3984 30.1016 21.8906 29.9844 22.3359 29.7266C23.8359 28.8594 24.375 26.6797 23.8828 23.6094C23.7891 23.0703 23.6719 22.5078 23.5312 21.9453C24.0938 21.7812 24.6328 21.6172 25.1484 21.4063C28.0781 20.2813 29.6719 18.7344 29.6719 17C29.6719 15.2656 28.0781 13.7188 25.1484 12.5938ZM21.6797 5.44531C22.6406 6.00781 22.9688 7.74219 22.5703 10.2031C22.5 10.6953 22.3828 11.2109 22.2422 11.75C21.0234 11.4688 19.7344 11.2812 18.375 11.1641C17.5781 10.0391 16.7578 9.03125 15.9375 8.11719C17.6719 6.40625 19.4297 5.23438 20.8594 5.23438C21.1641 5.23438 21.4453 5.30469 21.6797 5.44531ZM19.0547 19.3438C18.6328 20.0938 18.1406 20.8438 17.625 21.5938C16.7578 21.6641 15.8906 21.6875 15 21.6875C14.0859 21.6875 13.2187 21.6641 12.375 21.5938C11.8594 20.8438 11.3906 20.0938 10.9687 19.3438C10.5234 18.5703 10.1016 17.7734 9.72656 17C10.1016 16.2266 10.5234 15.4297 10.9687 14.6562C11.3906 13.9062 11.8828 13.1563 12.3984 12.4063C13.2656 12.3359 14.1328 12.3125 15.0234 12.3125C15.9375 12.3125 16.8047 12.3359 17.6484 12.4063C18.1641 13.1563 18.6328 13.9062 19.0547 14.6562C19.5 15.4297 19.9219 16.2266 20.2969 17C19.8984 17.7734 19.5 18.5469 19.0547 19.3438ZM21 18.5703C21.3516 19.3906 21.6328 20.1875 21.8906 20.9844C21.0938 21.1719 20.25 21.3125 19.3594 21.4297C19.6406 20.9844 19.9453 20.5156 20.2031 20.0234C20.4844 19.5313 20.7422 19.0391 21 18.5703ZM15 24.9219C14.4375 24.3125 13.8984 23.6562 13.3828 22.9766C13.9219 23 14.4609 23.0234 15 23.0234C15.5391 23.0234 16.0781 23 16.6172 22.9766C16.1016 23.6562 15.5625 24.3125 15 24.9219ZM10.6406 21.4063C9.75 21.2891 8.90625 21.1484 8.10937 20.9609C8.36719 20.1875 8.64844 19.3672 9 18.5469C9.25781 19.0156 9.51562 19.5078 9.79687 19.9766C10.0781 20.4922 10.3594 20.9375 10.6406 21.4063ZM9 15.4297C8.64844 14.6094 8.36719 13.8125 8.10937 13.0156C8.90625 12.8281 9.75 12.6875 10.6406 12.5703C10.3594 13.0156 10.0547 13.4844 9.79687 13.9766C9.51562 14.4688 9.25781 14.9609 9 15.4297ZM15 9.07812C15.5625 9.6875 16.1016 10.3438 16.6172 11.0234C16.0781 11 15.5391 10.9766 15 10.9766C14.4609 10.9766 13.9219 11 13.3828 11.0234C13.8984 10.3438 14.4375 9.6875 15 9.07812ZM20.2031 14L19.3594 12.5938C20.25 12.7109 21.0938 12.8516 21.8906 13.0391C21.6328 13.8125 21.3516 14.6328 21 15.4531C20.7422 14.9609 20.4844 14.4688 20.2031 14ZM7.42969 10.2031C7.03125 7.74219 7.35937 6.00781 8.32031 5.44531C8.55469 5.30469 8.83594 5.23438 9.14062 5.23438C10.5469 5.23438 12.3047 6.38281 14.0625 8.11719C13.2422 9.00781 12.4219 10.0391 11.625 11.1641C10.2656 11.2812 8.97656 11.4922 7.75781 11.75C7.61719 11.2109 7.52344 10.6953 7.42969 10.2031ZM1.64062 17C1.64062 15.8984 2.97656 14.7266 5.32031 13.8594C5.78906 13.6719 6.30469 13.5078 6.82031 13.3672C7.19531 14.5391 7.66406 15.7812 8.22656 17.0234C7.66406 18.2656 7.17188 19.4844 6.82031 20.6562C3.58594 19.7188 1.64062 18.3125 1.64062 17ZM8.32031 28.5547C7.35937 27.9922 7.03125 26.2578 7.42969 23.7969C7.5 23.3047 7.61719 22.7891 7.75781 22.25C8.97656 22.5312 10.2656 22.7188 11.625 22.8359C12.4219 23.9609 13.2422 24.9688 14.0625 25.8828C12.3281 27.5938 10.5703 28.7656 9.14062 28.7656C8.83594 28.7656 8.55469 28.6953 8.32031 28.5547ZM22.5703 23.7969C22.9688 26.2578 22.6406 27.9922 21.6797 28.5547C21.4453 28.6953 21.1641 28.7656 20.8594 28.7656C19.4531 28.7656 17.6953 27.6172 15.9375 25.8828C16.7578 24.9922 17.5781 23.9609 18.375 22.8359C19.7344 22.7188 21.0234 22.5078 22.2422 22.25C22.3828 22.7891 22.4766 23.3047 22.5703 23.7969ZM24.6797 20.1406C24.2109 20.3281 23.6953 20.4922 23.1797 20.6328C22.8047 19.4609 22.3359 18.2188 21.7734 16.9766C22.3359 15.7344 22.8281 14.5156 23.1797 13.3438C26.4141 14.2813 28.3594 15.6875 28.3594 17C28.3594 18.1016 27 19.2734 24.6797 20.1406Z" fill="white"/>
<g clip-path="url(#clip0_305_725)">
<path d="M39.4688 14.979V29.6274H68.7656V0.330566H39.4688V14.979ZM63.0773 13.8071C63.779 13.97 64.4168 14.337 64.9102 14.8618C65.1818 15.1446 65.4179 15.4594 65.6133 15.7993C65.6133 15.8368 64.3477 16.6923 63.5766 17.1704C63.5484 17.1892 63.4359 17.0673 63.3117 16.8821C63.171 16.6392 62.9709 16.436 62.7304 16.2913C62.4898 16.1466 62.2165 16.0652 61.9359 16.0548C61.0477 15.9938 60.4758 16.4603 60.4805 17.2267C60.4731 17.4175 60.5168 17.6068 60.607 17.7751C60.8016 18.1806 61.1648 18.422 62.3039 18.9142C64.4016 19.8165 65.2992 20.4118 65.857 21.2579C66.4805 22.1954 66.6187 23.7095 66.1969 24.8298C65.7281 26.0485 64.5797 26.8759 62.9555 27.1501C62.2136 27.2351 61.4641 27.2272 60.7242 27.1267C59.595 26.9435 58.5534 26.4058 57.75 25.5915C57.4805 25.2938 56.9555 24.5181 56.9883 24.4618C57.0738 24.3983 57.1639 24.3411 57.2578 24.2907L58.3359 23.672L59.1773 23.1845L59.3531 23.4446C59.6498 23.869 60.0273 24.2306 60.4641 24.5087C61.4016 25.0009 62.6812 24.9329 63.3141 24.3634C63.5265 24.1547 63.6591 23.8781 63.6886 23.5817C63.7182 23.2854 63.6429 22.988 63.4758 22.7415C63.2414 22.4157 62.7727 22.1415 61.4625 21.5696C59.9508 20.9181 59.2992 20.5149 58.7039 19.8728C58.3323 19.449 58.0579 18.949 57.9 18.4079C57.7822 17.7897 57.7648 17.1566 57.8484 16.5329C58.1602 15.0728 59.2547 14.0532 60.8531 13.7509C61.5934 13.6593 62.3432 13.6798 63.0773 13.8118V13.8071ZM56.2008 15.0353V16.2353H52.3969V27.0704H49.6992V16.2329H45.8859V15.061C45.8757 14.6576 45.8867 14.2539 45.9188 13.8517C45.9328 13.8329 48.2625 13.8235 51.075 13.8282H56.1867L56.2008 15.0353Z" fill="white"/>
</g>
<g clip-path="url(#clip1_305_725)">
<path d="M109.093 14.7702C109.093 12.9674 107.727 11.4503 105.893 11.0174L110 0.0263672H89.647L93.7634 11.0521C91.9873 11.5199 90.6781 13.0105 90.6781 14.7793C90.6781 16.0792 91.3948 17.2318 92.4834 17.9425C92.0541 18.4972 91.557 19.0089 90.9938 19.494C89.9337 20.3959 88.7581 21.0889 87.4882 21.5486C86.3421 20.8464 85.8457 19.6068 86.2943 18.497C88.042 18.0118 89.3131 16.5296 89.3131 14.7875C89.3131 12.647 87.3931 10.9129 85.0427 10.9129C82.6835 10.9129 80.7647 12.6552 80.7647 14.7964C80.7647 15.8542 81.2417 16.8245 82.0062 17.5175C81.9392 17.6394 81.8726 17.7601 81.8056 17.8902C81.1657 19.0869 80.4396 20.439 80.1621 21.9561C79.6083 24.9892 80.5156 27.4255 82.7027 28.8034C83.9351 29.5752 85.2919 29.9652 86.7532 29.9652C89.2643 29.9652 91.815 28.8207 94.2788 27.711C96.0366 26.9228 97.8511 26.0987 99.6373 25.7005C100.297 25.5531 100.984 25.4661 101.71 25.371C103.18 25.1804 104.699 24.981 106.065 24.2614C107.66 23.421 108.749 22.0164 109.065 20.4043C109.302 19.1645 109.065 17.9167 108.453 16.8245C108.871 16.221 109.094 15.5042 109.093 14.7702ZM107.231 14.7702C107.231 15.9749 106.151 16.9546 104.824 16.9546C103.496 16.9546 102.417 15.9749 102.417 14.7702C102.417 14.38 102.531 14.0075 102.732 13.6869C102.808 13.565 102.904 13.4443 102.999 13.34C103.1 13.2328 103.212 13.137 103.333 13.0543L103.343 13.0452C103.419 12.9932 103.505 12.9409 103.591 12.8896C103.591 12.8896 103.601 12.8896 103.601 12.8804C103.639 12.8631 103.677 12.8373 103.716 12.82C103.725 12.82 103.734 12.8108 103.744 12.8108C103.783 12.7944 103.83 12.7771 103.878 12.7595C103.923 12.7437 103.968 12.7264 104.012 12.7075C104.021 12.7075 104.031 12.6981 104.04 12.6981C104.078 12.6901 104.117 12.6725 104.155 12.6643C104.165 12.6643 104.184 12.6552 104.193 12.6552C104.241 12.647 104.279 12.6379 104.327 12.6294H104.337L104.48 12.6029C104.49 12.6029 104.508 12.6029 104.518 12.5947C104.556 12.5947 104.594 12.5856 104.633 12.5856H104.68C104.728 12.5856 104.776 12.5774 104.833 12.5774H104.957C104.995 12.5774 105.024 12.5774 105.062 12.5856H105.081C105.158 12.595 105.234 12.6029 105.311 12.6205C106.399 12.8282 107.231 13.7127 107.231 14.7702ZM92.3112 1.75957H107.335L103.887 10.9909C103.744 11.0174 103.601 11.0603 103.458 11.1034L99.8288 4.38621L96.1894 11.06C96.0457 11.0171 95.8929 10.9907 95.7408 10.9649L92.3112 1.75957ZM99.1402 14.0155C98.959 13.2006 98.5003 12.4729 97.8511 11.9354L99.8288 8.3127L101.824 12.0132C101.232 12.5507 100.803 13.2355 100.631 14.0155H99.1402ZM94.3556 12.6468C94.4032 12.6374 94.4417 12.6294 94.4892 12.6203H94.5176C94.556 12.6121 94.5947 12.6121 94.6322 12.6027H94.6706C94.7091 12.6027 94.7374 12.5945 94.7759 12.5945H95.1485C95.186 12.5945 95.2153 12.6027 95.2437 12.6027C95.2629 12.6027 95.272 12.6027 95.2913 12.6121C95.3297 12.6203 95.3581 12.6203 95.3967 12.6294C95.4056 12.6294 95.4157 12.6294 95.4349 12.6376C95.4827 12.6468 95.5303 12.655 95.5685 12.6641H95.5779C95.6163 12.6723 95.6548 12.6805 95.6923 12.6981C95.7024 12.6981 95.7115 12.7072 95.7307 12.7072C95.7591 12.7154 95.7975 12.7246 95.8259 12.7419C95.8359 12.7419 95.8451 12.7501 95.8552 12.7501C95.8927 12.7677 95.9313 12.7768 95.9698 12.7942H95.9789C96.0265 12.8106 96.0649 12.8279 96.1034 12.8546H96.1127C96.1509 12.872 96.1894 12.8975 96.2278 12.9149C96.2372 12.9149 96.2372 12.9243 96.2461 12.9243C96.2845 12.9407 96.3131 12.9671 96.3516 12.9845L96.3617 12.9927C96.476 13.0707 96.5813 13.1577 96.6856 13.2446L96.6956 13.2529C96.791 13.348 96.8862 13.4523 96.9631 13.565C97.2113 13.9119 97.3549 14.3195 97.3549 14.7615C97.3549 15.9664 96.2754 16.9452 94.9479 16.9452C93.6204 16.9452 92.5409 15.9664 92.5409 14.7615C92.531 13.7471 93.3047 12.8893 94.3556 12.6468ZM84.9567 12.5854C86.2845 12.5854 87.3638 13.565 87.3638 14.7697C87.3638 15.9746 86.2845 16.9541 84.9567 16.9541C83.6292 16.9541 82.5497 15.9746 82.5497 14.7697C82.5497 13.565 83.6292 12.5854 84.9567 12.5854ZM107.173 20.1011C106.963 21.2096 106.208 22.1811 105.1 22.7614C104.059 23.308 102.779 23.481 101.433 23.6542C100.698 23.7493 99.9239 23.8536 99.1786 24.0184C97.192 24.4607 95.2821 25.3276 93.4292 26.1589C91.0606 27.2256 88.8249 28.2308 86.7532 28.2308C85.6737 28.2308 84.7088 27.9536 83.7924 27.373C81.6912 26.0556 81.7955 23.5855 82.0446 22.2332C82.2734 20.9671 82.9134 19.7797 83.5249 18.6444C83.5624 18.5748 83.5917 18.5143 83.6292 18.4447C83.8399 18.5143 84.0595 18.5666 84.2885 18.6013C83.9259 20.4388 84.9567 22.3368 86.9627 23.2733L87.326 23.4463L87.7172 23.3162C89.389 22.7788 90.9361 21.9036 92.302 20.7334C93.0757 20.0743 93.735 19.3639 94.2888 18.5921C94.5084 18.6271 94.7283 18.6362 94.9479 18.6362C96.9347 18.6362 98.6056 17.3964 99.0834 15.7321H100.688C101.165 17.4048 102.837 18.636 104.824 18.636C105.617 18.636 106.352 18.4368 106.982 18.0988C107.231 18.7487 107.307 19.4244 107.173 20.1011Z" fill="white"/>
</g>
<g clip-path="url(#clip2_305_725)">
<path d="M140.787 20.6507C138.677 24.9632 134.983 27.8647 130.097 28.8187C129.347 29.0022 128.578 29.092 127.807 29.0858C124.994 29.0858 122.416 27.914 121.165 25.9944C119.484 23.4374 118.912 18.0163 124.453 14.0062C124.565 14.6179 124.795 15.4569 124.948 15.9538C123.86 16.7619 122.97 17.806 122.344 19.0077C121.312 21.0327 121.427 23.0554 122.648 24.9257C123.492 26.1866 124.828 26.953 126.546 27.1874C128.692 27.459 130.869 27.049 132.769 26.0155C135.747 24.4499 137.733 22.5796 139.031 20.0226C138.664 19.6431 138.447 19.1436 138.419 18.6163C138.4 18.0505 138.605 17.5 138.991 17.0857C139.377 16.6713 139.911 16.4269 140.477 16.4062H140.557C141.107 16.4034 141.637 16.6123 142.038 16.9896C142.439 17.367 142.679 17.8838 142.709 18.4333C142.739 18.9828 142.557 19.5228 142.2 19.9417C141.843 20.3605 141.339 20.6261 140.791 20.6835L140.787 20.6507ZM147.506 15.9163C150.368 19.1601 150.445 22.978 149.339 25.1929C148.308 27.2155 145.589 29.2405 141.933 29.2405C140.226 29.2057 138.547 28.8019 137.011 28.0569C137.548 27.6749 138.309 27.0632 138.729 26.6812C139.913 27.1943 141.188 27.4668 142.479 27.4827C144.846 27.4827 146.639 26.3765 147.708 24.3538C148.394 23.0179 148.434 21.4522 147.785 19.8491C146.988 17.8321 145.571 16.1206 143.737 14.9624C141.332 13.3409 138.496 12.4764 135.595 12.4804H134.908C134.748 12.8503 134.488 13.168 134.156 13.3974C133.825 13.6269 133.436 13.759 133.033 13.7788H132.961C132.404 13.772 131.872 13.5483 131.477 13.1554C131.083 12.7624 130.857 12.2311 130.848 11.6743C130.838 11.1175 131.047 10.5791 131.428 10.1733C131.81 9.76763 132.334 9.52661 132.89 9.50146H132.968C133.355 9.50175 133.736 9.60887 134.066 9.81106C134.397 10.0132 134.666 10.3027 134.843 10.6476H135.455C140.33 10.6476 144.609 12.5179 147.506 15.9163ZM128.112 21.3069C128.071 20.9177 128.166 20.5265 128.379 20.1983C126.241 16.4952 125.098 11.8007 126.853 6.91396C128.112 3.24131 131.28 0.759277 134.716 0.759277C138.382 0.759277 142.2 3.96787 142.657 10.1507C142.085 9.96084 141.251 9.68193 140.749 9.57881C140.625 7.55615 138.916 2.51709 134.869 2.59209C133.418 2.63193 131.28 3.31865 130.181 4.72959C128.821 6.41386 128.03 8.48568 127.922 10.6476C127.664 13.6119 128.36 16.581 129.907 19.1226C129.992 19.0913 130.083 19.0786 130.174 19.0851H130.249C130.816 19.0748 131.364 19.2902 131.772 19.6838C132.18 20.0774 132.415 20.617 132.425 21.1839C132.435 21.7508 132.22 22.2985 131.827 22.7067C131.433 23.1148 130.893 23.3498 130.326 23.3601H130.249C129.696 23.3581 129.165 23.1428 128.767 22.759C128.369 22.3752 128.134 21.8525 128.112 21.2999V21.3069Z" fill="white"/>
</g>
<path d="M174.237 12.3363C174.475 11.99 174.734 11.9463 174.944 11.9463C175.154 11.9463 175.502 11.99 175.74 12.3363C177.602 14.8738 180.677 19.93 182.946 23.6613C184.426 26.0925 185.562 27.9613 185.796 28.1988C186.671 29.0913 187.871 28.535 188.569 27.5225C189.255 26.5263 189.445 25.8263 189.445 25.08C189.445 24.5713 179.497 6.22126 178.496 4.69376C177.534 3.22501 177.219 2.85376 175.571 2.85376H174.336C172.692 2.85376 172.455 3.22501 171.491 4.69376C170.49 6.22126 160.541 24.5713 160.541 25.0788C160.541 25.8263 160.732 26.5263 161.42 27.5225C162.117 28.535 163.317 29.0913 164.192 28.1975C164.425 27.96 165.561 26.0925 167.041 23.66C169.31 19.93 172.375 14.8738 174.239 12.335L174.237 12.3363Z" fill="white"/>
<defs>
<clipPath id="clip0_305_725">
<rect width="30" height="30" fill="white" transform="translate(39)"/>
</clipPath>
<clipPath id="clip1_305_725">
<rect width="30" height="30" fill="white" transform="translate(80)"/>
</clipPath>
<clipPath id="clip2_305_725">
<rect width="30" height="30" fill="white" transform="translate(120)"/>
</clipPath>
</defs>
</svg>
